Katibeh-Latin - Kerning, With Production Names.ufo
<glyph name="quotedbl" format="1">
  <advance width="257"/>
  <unicode hex="0022"/>
  <outline>
    <contour>
      <point x="43" y="522"/>
      <point x="28" y="516"/>
      <point x="17" y="503" type="curve"/>
      <point x="17" y="468"/>
      <point x="36" y="373"/>
      <point x="55" y="336" type="curve"/>
      <point x="71" y="336" type="line"/>
      <point x="89" y="373"/>
      <point x="109" y="468"/>
      <point x="109" y="503" type="curve"/>
      <point x="99" y="516"/>
      <point x="82" y="522"/>
      <point x="64" y="522" type="curve" smooth="yes"/>
    </contour>
    <contour>
      <point x="174" y="522"/>
      <point x="159" y="516"/>
      <point x="148" y="503" type="curve"/>
      <point x="148" y="468"/>
      <point x="167" y="373"/>
      <point x="185" y="336" type="curve"/>
      <point x="202" y="336" type="line"/>
      <point x="221" y="373"/>
      <point x="240" y="468"/>
      <point x="240" y="503" type="curve"/>
      <point x="230" y="516"/>
      <point x="213" y="522"/>
      <point x="194" y="522" type="curve" smooth="yes"/>
    </contour>
  </outline>
</glyph>
<glyph name="less" format="1">
  <advance width="404"/>
  <unicode hex="003C"/>
  <outline>
    <contour>
      <point x="64" y="207" type="line"/>
      <point x="339" y="96" type="line"/>
      <point x="339" y="146" type="line"/>
      <point x="120" y="232" type="line"/>
      <point x="339" y="319" type="line"/>
      <point x="339" y="368" type="line"/>
      <point x="64" y="257" type="line"/>
    </contour>
  </outline>
</glyph>
<glyph name="question" format="1">
  <advance width="330"/>
  <unicode hex="003F"/>
  <outline>
    <contour>
      <point x="91" y="25"/>
      <point x="122" y="-9"/>
      <point x="142" y="-9" type="curve" smooth="yes"/>
      <point x="163" y="-9"/>
      <point x="195" y="23"/>
      <point x="195" y="46" type="curve" smooth="yes"/>
      <point x="195" y="68"/>
      <point x="163" y="101"/>
      <point x="142" y="101" type="curve" smooth="yes"/>
      <point x="122" y="101"/>
      <point x="91" y="67"/>
      <point x="91" y="46" type="curve" smooth="yes"/>
    </contour>
    <contour>
      <point x="73" y="493"/>
      <point x="15" y="456"/>
      <point x="15" y="404" type="curve" smooth="yes"/>
      <point x="15" y="358"/>
      <point x="63" y="324"/>
      <point x="137" y="321" type="curve"/>
      <point x="139" y="328" type="line"/>
      <point x="118" y="343"/>
      <point x="106" y="370"/>
      <point x="106" y="402" type="curve" smooth="yes"/>
      <point x="106" y="444"/>
      <point x="126" y="473"/>
      <point x="156" y="473" type="curve" smooth="yes"/>
      <point x="192" y="473"/>
      <point x="213" y="436"/>
      <point x="213" y="375" type="curve" smooth="yes"/>
      <point x="213" y="307"/>
      <point x="179" y="240"/>
      <point x="106" y="165" type="curve"/>
      <point x="136" y="134" type="line"/>
      <point x="149" y="134" type="line"/>
      <point x="152" y="146" type="line" smooth="yes"/>
      <point x="173" y="225"/>
      <point x="312" y="273"/>
      <point x="312" y="380" type="curve" smooth="yes"/>
      <point x="312" y="447"/>
      <point x="248" y="493"/>
      <point x="155" y="493" type="curve" smooth="yes"/>
    </contour>
  </outline>
</glyph>
<glyph name="S" format="1">
  <advance width="388"/>
  <unicode hex="0053"/>
  <outline>
    <contour>
      <point x="127" y="422"/>
      <point x="151" y="452"/>
      <point x="198" y="452" type="curve" smooth="yes"/>
      <point x="248" y="452"/>
      <point x="269" y="423"/>
      <point x="269" y="392" type="curve" smooth="yes"/>
      <point x="269" y="371"/>
      <point x="259" y="350"/>
      <point x="242" y="336" type="curve"/>
      <point x="257" y="329"/>
      <point x="273" y="325"/>
      <point x="288" y="325" type="curve" smooth="yes"/>
      <point x="329" y="325"/>
      <point x="355" y="347"/>
      <point x="355" y="383" type="curve" smooth="yes"/>
      <point x="355" y="440"/>
      <point x="293" y="476"/>
      <point x="204" y="476" type="curve" smooth="yes"/>
      <point x="99" y="476"/>
      <point x="29" y="423"/>
      <point x="29" y="348" type="curve" smooth="yes"/>
      <point x="29" y="196"/>
      <point x="262" y="196"/>
      <point x="262" y="84" type="curve" smooth="yes"/>
      <point x="262" y="45"/>
      <point x="234" y="14"/>
      <point x="185" y="14" type="curve" smooth="yes"/>
      <point x="137" y="14"/>
      <point x="109" y="45"/>
      <point x="109" y="81" type="curve" smooth="yes"/>
      <point x="109" y="107"/>
      <point x="117" y="132"/>
      <point x="140" y="144" type="curve"/>
      <point x="125" y="152"/>
      <point x="109" y="156"/>
      <point x="94" y="156" type="curve" smooth="yes"/>
      <point x="54" y="156"/>
      <point x="22" y="132"/>
      <point x="22" y="91" type="curve" smooth="yes"/>
      <point x="22" y="29"/>
      <point x="86" y="-9"/>
      <point x="180" y="-9" type="curve" smooth="yes"/>
      <point x="289" y="-9"/>
      <point x="362" y="40"/>
      <point x="362" y="124" type="curve" smooth="yes"/>
      <point x="362" y="267"/>
      <point x="127" y="265"/>
      <point x="127" y="390" type="curve" smooth="yes"/>
    </contour>
    <contour>
      <point x="200" y="467" type="move" name="top"/>
    </contour>
    <contour>
      <point x="194" y="0" type="move" name="bottom"/>
    </contour>
  </outline>
</glyph>
<glyph name="Z" format="1">
  <advance width="388"/>
  <unicode hex="005A"/>
  <outline>
    <contour>
      <point x="314" y="0"/>
      <point x="337" y="-3"/>
      <point x="357" y="-17" type="curve"/>
      <point x="367" y="-8" type="line"/>
      <point x="367" y="112" type="line"/>
      <point x="347" y="119" type="line"/>
      <point x="324" y="51"/>
      <point x="305" y="25"/>
      <point x="265" y="25" type="curve" smooth="yes"/>
      <point x="131" y="25" type="line"/>
      <point x="380" y="467" type="line"/>
      <point x="129" y="467" type="line" smooth="yes"/>
      <point x="90" y="467"/>
      <point x="67" y="471"/>
      <point x="55" y="480" type="curve" smooth="yes"/>
      <point x="43" y="489" type="line"/>
      <point x="33" y="480" type="line"/>
      <point x="33" y="355" type="line"/>
      <point x="52" y="348" type="line"/>
      <point x="75" y="418"/>
      <point x="94" y="442"/>
      <point x="138" y="442" type="curve" smooth="yes"/>
      <point x="259" y="442" type="line"/>
      <point x="9" y="0" type="line"/>
      <point x="274" y="0" type="line" smooth="yes"/>
    </contour>
    <contour>
      <point x="204" y="467" type="move" name="top"/>
    </contour>
    <contour>
      <point x="194" y="0" type="move" name="bottom"/>
    </contour>
  </outline>
</glyph>
<glyph name="backslash" format="1">
  <advance width="241"/>
  <unicode hex="005C"/>
  <outline>
    <contour>
      <point x="235" y="-41" type="line"/>
      <point x="40" y="508" type="line"/>
      <point x="7" y="508" type="line"/>
      <point x="202" y="-41" type="line"/>
    </contour>
  </outline>
</glyph>
<glyph name="c" format="1">
  <advance width="336"/>
  <unicode hex="0063"/>
  <outline>
    <contour>
      <point x="318" y="296"/>
      <point x="268" y="332"/>
      <point x="195" y="332" type="curve" smooth="yes"/>
      <point x="91" y="332"/>
      <point x="23" y="264"/>
      <point x="23" y="159" type="curve" smooth="yes"/>
      <point x="23" y="61"/>
      <point x="89" y="-9"/>
      <point x="183" y="-9" type="curve" smooth="yes"/>
      <point x="247" y="-9"/>
      <point x="292" y="23"/>
      <point x="317" y="59" type="curve"/>
      <point x="305" y="67" type="line"/>
      <point x="283" y="43"/>
      <point x="257" y="24"/>
      <point x="213" y="24" type="curve" smooth="yes"/>
      <point x="155" y="24"/>
      <point x="123" y="80"/>
      <point x="123" y="161" type="curve" smooth="yes"/>
      <point x="123" y="248"/>
      <point x="147" y="307"/>
      <point x="182" y="307" type="curve" smooth="yes"/>
      <point x="214" y="307"/>
      <point x="229" y="277"/>
      <point x="229" y="241" type="curve" smooth="yes"/>
      <point x="229" y="212"/>
      <point x="218" y="195"/>
      <point x="207" y="185" type="curve"/>
      <point x="220" y="177"/>
      <point x="235" y="173"/>
      <point x="249" y="173" type="curve" smooth="yes"/>
      <point x="285" y="173"/>
      <point x="318" y="198"/>
      <point x="318" y="244" type="curve" smooth="yes"/>
    </contour>
    <contour>
      <point x="185" y="325" type="move" name="top"/>
    </contour>
    <contour>
      <point x="169" y="0" type="move" name="bottom"/>
    </contour>
  </outline>
</glyph>
<glyph name="d" format="1">
  <advance width="408"/>
  <unicode hex="0064"/>
  <outline>
    <contour>
      <point x="272" y="301" type="line"/>
      <point x="253" y="319"/>
      <point x="219" y="332"/>
      <point x="187" y="332" type="curve" smooth="yes"/>
      <point x="86" y="332"/>
      <point x="23" y="261"/>
      <point x="23" y="149" type="curve" smooth="yes"/>
      <point x="23" y="55"/>
      <point x="69" y="-9"/>
      <point x="136" y="-9" type="curve" smooth="yes"/>
      <point x="181" y="-9"/>
      <point x="217" y="9"/>
      <point x="252" y="49" type="curve"/>
      <point x="258" y="8"/>
      <point x="277" y="-9"/>
      <point x="318" y="-9" type="curve" smooth="yes"/>
      <point x="352" y="-9"/>
      <point x="380" y="4"/>
      <point x="405" y="32" type="curve"/>
      <point x="397" y="42" type="line"/>
      <point x="386" y="33"/>
      <point x="372" y="27"/>
      <point x="360" y="27" type="curve" smooth="yes"/>
      <point x="347" y="27"/>
      <point x="341" y="38"/>
      <point x="341" y="57" type="curve" smooth="yes"/>
      <point x="341" y="469" type="line" smooth="yes"/>
      <point x="341" y="482"/>
      <point x="329" y="490"/>
      <point x="312" y="490" type="curve" smooth="yes"/>
      <point x="273" y="490"/>
      <point x="227" y="475"/>
      <point x="200" y="451" type="curve"/>
      <point x="204" y="441" type="line"/>
      <point x="238" y="441" type="line" smooth="yes"/>
      <point x="247" y="441"/>
      <point x="251" y="437"/>
      <point x="251" y="427" type="curve" smooth="yes"/>
      <point x="251" y="81" type="line"/>
      <point x="235" y="54"/>
      <point x="213" y="39"/>
      <point x="188" y="39" type="curve" smooth="yes"/>
      <point x="146" y="39"/>
      <point x="123" y="82"/>
      <point x="123" y="161" type="curve" smooth="yes"/>
      <point x="123" y="258"/>
      <point x="152" y="306"/>
      <point x="207" y="306" type="curve" smooth="yes"/>
      <point x="229" y="306"/>
      <point x="251" y="299"/>
      <point x="269" y="285" type="curve"/>
    </contour>
    <contour>
      <point x="204" y="0" type="move" name="bottom"/>
    </contour>
    <contour>
      <point x="204" y="325" type="move" name="top"/>
    </contour>
    <contour>
      <point x="354" y="325" type="move" name="topright"/>
    </contour>
    <contour>
      <point x="270" y="382" type="move" name="center"/>
    </contour>
  </outline>
</glyph>
<glyph name="t" format="1">
  <advance width="237"/>
  <unicode hex="0074"/>
  <outline>
    <contour>
      <point x="169" y="-9"/>
      <point x="202" y="9"/>
      <point x="230" y="43" type="curve"/>
      <point x="222" y="53" type="line"/>
      <point x="207" y="37"/>
      <point x="188" y="27"/>
      <point x="173" y="27" type="curve" smooth="yes"/>
      <point x="157" y="27"/>
      <point x="148" y="37"/>
      <point x="148" y="57" type="curve" smooth="yes"/>
      <point x="148" y="282" type="line"/>
      <point x="215" y="282" type="line"/>
      <point x="224" y="289"/>
      <point x="230" y="304"/>
      <point x="230" y="321" type="curve"/>
      <point x="148" y="321" type="line"/>
      <point x="148" y="411" type="line"/>
      <point x="113" y="411"/>
      <point x="108" y="410"/>
      <point x="104" y="395" type="curve" smooth="yes"/>
      <point x="88" y="346"/>
      <point x="65" y="324"/>
      <point x="21" y="312" type="curve" smooth="yes"/>
      <point x="8" y="308"/>
      <point x="7" y="305"/>
      <point x="7" y="282" type="curve"/>
      <point x="57" y="282" type="line"/>
      <point x="57" y="70" type="line" smooth="yes"/>
      <point x="57" y="14"/>
      <point x="80" y="-9"/>
      <point x="134" y="-9" type="curve" smooth="yes"/>
    </contour>
    <contour>
      <point x="118" y="0" type="move" name="bottom"/>
    </contour>
    <contour>
      <point x="118" y="325" type="move" name="top"/>
    </contour>
    <contour>
      <point x="171" y="325" type="move" name="topright"/>
    </contour>
    <contour>
      <point x="108" y="163" type="move" name="center"/>
    </contour>
  </outline>
</glyph>
<glyph name="v" format="1">
  <advance width="364"/>
  <unicode hex="0076"/>
  <outline>
    <contour>
      <point x="180" y="23"/>
      <point x="170" y="43"/>
      <point x="161" y="108" type="curve" smooth="yes"/>
      <point x="135" y="287" type="line" smooth="yes"/>
      <point x="130" y="323"/>
      <point x="123" y="332"/>
      <point x="103" y="332" type="curve" smooth="yes"/>
      <point x="66" y="332"/>
      <point x="26" y="316"/>
      <point x="0" y="293" type="curve"/>
      <point x="3" y="282" type="line"/>
      <point x="30" y="282" type="line" smooth="yes"/>
      <point x="38" y="282"/>
      <point x="41" y="279"/>
      <point x="43" y="268" type="curve" smooth="yes"/>
      <point x="64" y="124" type="line" smooth="yes"/>
      <point x="78" y="31"/>
      <point x="110" y="-9"/>
      <point x="180" y="-9" type="curve" smooth="yes"/>
      <point x="266" y="-9"/>
      <point x="324" y="89"/>
      <point x="324" y="263" type="curve" smooth="yes"/>
      <point x="324" y="281"/>
      <point x="323" y="303"/>
      <point x="321" y="332" type="curve"/>
      <point x="237" y="322" type="line"/>
      <point x="229" y="314" type="line"/>
      <point x="238" y="303" type="line" smooth="yes"/>
      <point x="263" y="269"/>
      <point x="274" y="227"/>
      <point x="274" y="169" type="curve" smooth="yes"/>
      <point x="274" y="88"/>
      <point x="249" y="23"/>
      <point x="205" y="23" type="curve" smooth="yes"/>
    </contour>
  </outline>
</glyph>
<glyph name="cent" format="1">
  <advance width="332"/>
  <unicode hex="00A2"/>
  <outline>
    <contour>
      <point x="189" y="395" type="line"/>
      <point x="189" y="521" type="line"/>
      <point x="179" y="521"/>
      <point x="167" y="518"/>
      <point x="161" y="506" type="curve"/>
      <point x="161" y="395" type="line"/>
    </contour>
    <contour>
      <point x="161" y="72" type="line"/>
      <point x="161" y="-54" type="line"/>
      <point x="171" y="-54"/>
      <point x="183" y="-51"/>
      <point x="189" y="-39" type="curve"/>
      <point x="189" y="73" type="line"/>
    </contour>
    <component base="c" yOffset="73"/>
  </outline>
</glyph>
<glyph name="brokenbar" format="1">
  <advance width="228"/>
  <unicode hex="00A6"/>
  <outline>
    <contour>
      <point x="146" y="294" type="line"/>
      <point x="146" y="484" type="line"/>
      <point x="82" y="484" type="line"/>
      <point x="82" y="294" type="line"/>
    </contour>
    <contour>
      <point x="146" y="-53" type="line"/>
      <point x="146" y="137" type="line"/>
      <point x="82" y="137" type="line"/>
      <point x="82" y="-53" type="line"/>
    </contour>
  </outline>
</glyph>
<glyph name="section" format="1">
  <advance width="298"/>
  <unicode hex="00A7"/>
  <outline>
    <contour>
      <point x="286" y="445"/>
      <point x="239" y="475"/>
      <point x="174" y="475" type="curve" smooth="yes"/>
      <point x="70" y="475"/>
      <point x="35" y="413"/>
      <point x="35" y="357" type="curve" smooth="yes"/>
      <point x="35" y="325"/>
      <point x="43" y="283"/>
      <point x="94" y="233" type="curve" smooth="yes"/>
      <point x="219" y="112" type="line"/>
      <point x="232" y="134"/>
      <point x="237" y="153"/>
      <point x="237" y="175" type="curve" smooth="yes"/>
      <point x="237" y="213"/>
      <point x="215" y="244"/>
      <point x="163" y="295" type="curve" smooth="yes"/>
      <point x="124" y="335"/>
      <point x="113" y="364"/>
      <point x="113" y="387" type="curve" smooth="yes"/>
      <point x="113" y="423"/>
      <point x="134" y="446"/>
      <point x="160" y="446" type="curve" smooth="yes"/>
      <point x="181" y="446"/>
      <point x="198" y="427"/>
      <point x="198" y="399" type="curve" smooth="yes"/>
      <point x="198" y="373"/>
      <point x="191" y="350"/>
      <point x="175" y="333" type="curve"/>
      <point x="178" y="324" type="line"/>
      <point x="233" y="327"/>
      <point x="286" y="353"/>
      <point x="286" y="403" type="curve" smooth="yes"/>
    </contour>
    <contour>
      <point x="12" y="-137"/>
      <point x="59" y="-166"/>
      <point x="125" y="-166" type="curve" smooth="yes"/>
      <point x="228" y="-166"/>
      <point x="263" y="-104"/>
      <point x="263" y="-48" type="curve" smooth="yes"/>
      <point x="263" y="-16"/>
      <point x="255" y="26"/>
      <point x="203" y="76" type="curve" smooth="yes"/>
      <point x="80" y="197" type="line"/>
      <point x="66" y="175"/>
      <point x="61" y="156"/>
      <point x="61" y="133" type="curve" smooth="yes"/>
      <point x="61" y="95"/>
      <point x="83" y="65"/>
      <point x="135" y="14" type="curve" smooth="yes"/>
      <point x="174" y="-26"/>
      <point x="185" y="-55"/>
      <point x="185" y="-78" type="curve" smooth="yes"/>
      <point x="185" y="-114"/>
      <point x="164" y="-137"/>
      <point x="138" y="-137" type="curve" smooth="yes"/>
      <point x="116" y="-137"/>
      <point x="99" y="-118"/>
      <point x="99" y="-90" type="curve" smooth="yes"/>
      <point x="99" y="-65"/>
      <point x="106" y="-42"/>
      <point x="123" y="-24" type="curve"/>
      <point x="120" y="-16" type="line"/>
      <point x="65" y="-18"/>
      <point x="12" y="-44"/>
      <point x="12" y="-94" type="curve" smooth="yes"/>
    </contour>
  </outline>
</glyph>
<glyph name="macron" format="1">
  <advance width="265"/>
  <unicode hex="00AF"/>
  <outline>
    <contour>
      <point x="216" y="395" type="line"/>
      <point x="229" y="407"/>
      <point x="233" y="433"/>
      <point x="233" y="452" type="curve"/>
      <point x="49" y="452" type="line"/>
      <point x="36" y="440"/>
      <point x="32" y="415"/>
      <point x="32" y="395" type="curve"/>
    </contour>
  </outline>
</glyph>
<glyph name="kgreenlandic" format="1">
  <advance width="389"/>
  <unicode hex="0138"/>
  <outline>
    <contour>
      <point x="163" y="310" type="line" smooth="yes"/>
      <point x="163" y="323"/>
      <point x="152" y="332"/>
      <point x="135" y="332" type="curve" smooth="yes"/>
      <point x="95" y="332"/>
      <point x="50" y="315"/>
      <point x="25" y="293" type="curve"/>
      <point x="28" y="282" type="line"/>
      <point x="60" y="282" type="line" smooth="yes"/>
      <point x="69" y="282"/>
      <point x="73" y="278"/>
      <point x="73" y="268" type="curve" smooth="yes"/>
      <point x="73" y="66" type="line" smooth="yes"/>
      <point x="73" y="33"/>
      <point x="69" y="25"/>
      <point x="47" y="20" type="curve" smooth="yes"/>
      <point x="33" y="17" type="line"/>
      <point x="39" y="0" type="line"/>
      <point x="184" y="0" type="line"/>
      <point x="192" y="10" type="line"/>
      <point x="184" y="20" type="line" smooth="yes"/>
      <point x="169" y="42"/>
      <point x="163" y="63"/>
      <point x="163" y="104" type="curve"/>
    </contour>
    <contour>
      <point x="349" y="-9"/>
      <point x="377" y="3"/>
      <point x="402" y="30" type="curve"/>
      <point x="394" y="40" type="line"/>
      <point x="383" y="31"/>
      <point x="371" y="25"/>
      <point x="360" y="25" type="curve" smooth="yes"/>
      <point x="346" y="25"/>
      <point x="338" y="32"/>
      <point x="332" y="47" type="curve" smooth="yes"/>
      <point x="304" y="108" type="line" smooth="yes"/>
      <point x="281" y="156"/>
      <point x="242" y="177"/>
      <point x="143" y="177" type="curve"/>
      <point x="142" y="161" type="line"/>
      <point x="176" y="161"/>
      <point x="193" y="148"/>
      <point x="205" y="120" type="curve" smooth="yes"/>
      <point x="235" y="52" type="line" smooth="yes"/>
      <point x="254" y="9"/>
      <point x="272" y="-9"/>
      <point x="315" y="-9" type="curve" smooth="yes"/>
    </contour>
    <contour>
      <point x="319" y="280" type="line" smooth="yes"/>
      <point x="343" y="298"/>
      <point x="358" y="304"/>
      <point x="374" y="308" type="curve"/>
      <point x="369" y="325" type="line"/>
      <point x="248" y="325" type="line"/>
      <point x="240" y="315" type="line"/>
      <point x="248" y="309" type="line" smooth="yes"/>
      <point x="256" y="302"/>
      <point x="259" y="296"/>
      <point x="259" y="285" type="curve" smooth="yes"/>
      <point x="259" y="272"/>
      <point x="250" y="263"/>
      <point x="222" y="242" type="curve" smooth="yes"/>
      <point x="116" y="162" type="line"/>
      <point x="155" y="158" type="line"/>
    </contour>
  </outline>
</glyph>
<glyph name="Eng" format="1">
  <advance width="490"/>
  <unicode hex="014A"/>
  <outline>
    <contour>
      <point x="330" y="-77" type="line" smooth="yes"/>
      <point x="330" y="-122"/>
      <point x="316" y="-143"/>
      <point x="293" y="-143" type="curve" smooth="yes"/>
      <point x="272" y="-143"/>
      <point x="261" y="-122"/>
      <point x="261" y="-91" type="curve" smooth="yes"/>
      <point x="261" y="-66"/>
      <point x="270" y="-44"/>
      <point x="285" y="-31" type="curve"/>
      <point x="283" y="-24" type="line"/>
      <point x="231" y="-28"/>
      <point x="191" y="-59"/>
      <point x="191" y="-98" type="curve" smooth="yes"/>
      <point x="191" y="-139"/>
      <point x="231" y="-166"/>
      <point x="286" y="-166" type="curve" smooth="yes"/>
      <point x="374" y="-166"/>
      <point x="420" y="-106"/>
      <point x="420" y="0" type="curve" smooth="yes"/>
      <point x="420" y="336" type="line" smooth="yes"/>
      <point x="420" y="389"/>
      <point x="427" y="415"/>
      <point x="449" y="445" type="curve" smooth="yes"/>
      <point x="458" y="456" type="line"/>
      <point x="449" y="467" type="line"/>
      <point x="330" y="467" type="line"/>
      <point x="324" y="449" type="line"/>
      <point x="337" y="445" type="line" smooth="yes"/>
      <point x="375" y="435"/>
      <point x="388" y="420"/>
      <point x="388" y="384" type="curve" smooth="yes"/>
      <point x="388" y="94" type="line"/>
      <point x="165" y="467" type="line"/>
      <point x="35" y="467" type="line"/>
      <point x="27" y="454" type="line"/>
      <point x="37" y="445" type="line" smooth="yes"/>
      <point x="63" y="422"/>
      <point x="70" y="400"/>
      <point x="70" y="352" type="curve" smooth="yes"/>
      <point x="70" y="83" type="line" smooth="yes"/>
      <point x="70" y="43"/>
      <point x="62" y="31"/>
      <point x="29" y="22" type="curve" smooth="yes"/>
      <point x="15" y="18" type="line"/>
      <point x="22" y="0" type="line"/>
      <point x="132" y="0" type="line"/>
      <point x="141" y="10" type="line"/>
      <point x="132" y="22" type="line" smooth="yes"/>
      <point x="110" y="51"/>
      <point x="103" y="78"/>
      <point x="103" y="131" type="curve" smooth="yes"/>
      <point x="103" y="382" type="line"/>
      <point x="330" y="2" type="line"/>
    </contour>
  </outline>
</glyph>
<glyph name="uni0328" format="1">
  <advance width="252"/>
  <unicode hex="0328"/>
  <outline>
    <contour>
      <point x="144" y="-179"/>
      <point x="178" y="-156"/>
      <point x="212" y="-108" type="curve"/>
      <point x="200" y="-97" type="line"/>
      <point x="181" y="-116"/>
      <point x="156" y="-129"/>
      <point x="134" y="-129" type="curve" smooth="yes"/>
      <point x="109" y="-129"/>
      <point x="94" y="-115"/>
      <point x="94" y="-90" type="curve" smooth="yes"/>
      <point x="94" y="-59"/>
      <point x="112" y="-37"/>
      <point x="164" y="0" type="curve"/>
      <point x="153" y="15" type="line"/>
      <point x="66" y="-40"/>
      <point x="36" y="-74"/>
      <point x="36" y="-115" type="curve" smooth="yes"/>
      <point x="36" y="-152"/>
      <point x="64" y="-179"/>
      <point x="105" y="-179" type="curve" smooth="yes"/>
    </contour>
    <contour>
      <point x="164" y="0" type="move" name="_ogonek"/>
    </contour>
  </outline>
</glyph>
<glyph name="endash" format="1">
  <advance width="506"/>
  <unicode hex="2013"/>
  <outline>
    <contour>
      <point x="458" y="170" type="line"/>
      <point x="471" y="180"/>
      <point x="475" y="200"/>
      <point x="475" y="216" type="curve"/>
      <point x="49" y="209" type="line"/>
      <point x="37" y="200"/>
      <point x="33" y="179"/>
      <point x="33" y="164" type="curve"/>
    </contour>
  </outline>
</glyph>
<glyph name="ellipsis" format="1">
  <advance width="460"/>
  <unicode hex="2026"/>
  <outline>
    <contour>
      <point x="22" y="25"/>
      <point x="55" y="-9"/>
      <point x="76" y="-9" type="curve" smooth="yes"/>
      <point x="97" y="-9"/>
      <point x="131" y="25"/>
      <point x="131" y="48" type="curve" smooth="yes"/>
      <point x="131" y="71"/>
      <point x="97" y="106"/>
      <point x="76" y="106" type="curve" smooth="yes"/>
      <point x="54" y="106"/>
      <point x="22" y="71"/>
      <point x="22" y="48" type="curve" smooth="yes"/>
    </contour>
    <contour>
      <point x="176" y="25"/>
      <point x="209" y="-9"/>
      <point x="229" y="-9" type="curve" smooth="yes"/>
      <point x="252" y="-9"/>
      <point x="285" y="25"/>
      <point x="285" y="48" type="curve" smooth="yes"/>
      <point x="285" y="71"/>
      <point x="252" y="106"/>
      <point x="229" y="106" type="curve" smooth="yes"/>
      <point x="209" y="106"/>
      <point x="176" y="71"/>
      <point x="176" y="48" type="curve" smooth="yes"/>
    </contour>
    <contour>
      <point x="329" y="25"/>
      <point x="362" y="-9"/>
      <point x="382" y="-9" type="curve" smooth="yes"/>
      <point x="405" y="-9"/>
      <point x="437" y="25"/>
      <point x="437" y="48" type="curve" smooth="yes"/>
      <point x="437" y="71"/>
      <point x="405" y="106"/>
      <point x="382" y="106" type="curve" smooth="yes"/>
      <point x="362" y="106"/>
      <point x="329" y="71"/>
      <point x="329" y="48" type="curve" smooth="yes"/>
    </contour>
  </outline>
</glyph>
<glyph name="estimated" format="1">
  <advance width="390"/>
  <unicode hex="212E"/>
  <outline>
    <contour>
      <point x="291" y="192" type="line"/>
      <point x="291" y="286" type="line"/>
      <point x="264" y="312"/>
      <point x="232" y="325"/>
      <point x="196" y="325" type="curve" smooth="yes"/>
      <point x="159" y="325"/>
      <point x="127" y="312"/>
      <point x="102" y="286" type="curve"/>
      <point x="102" y="192" type="line"/>
    </contour>
    <contour>
      <point x="102" y="168" type="line"/>
      <point x="102" y="51" type="line"/>
      <point x="129" y="25"/>
      <point x="161" y="12"/>
      <point x="196" y="12" type="curve" smooth="yes"/>
      <point x="250" y="12"/>
      <point x="292" y="38"/>
      <point x="322" y="90" type="curve"/>
      <point x="345" y="77" type="line"/>
      <point x="294" y="10"/>
      <point x="259" y="-11"/>
      <point x="196" y="-11" type="curve" smooth="yes"/>
      <point x="97" y="-11"/>
      <point x="29" y="62"/>
      <point x="29" y="168" type="curve" smooth="yes"/>
      <point x="29" y="277"/>
      <point x="95" y="348"/>
      <point x="196" y="348" type="curve" smooth="yes"/>
      <point x="296" y="348"/>
      <point x="359" y="281"/>
      <point x="365" y="168" type="curve"/>
    </contour>
  </outline>
</glyph>
<glyph name="lozenge" format="1">
  <advance width="389"/>
  <unicode hex="25CA"/>
  <outline>
    <contour>
      <point x="33" y="233" type="line"/>
      <point x="162" y="0" type="line"/>
      <point x="228" y="0" type="line"/>
      <point x="356" y="233" type="line"/>
      <point x="227" y="467" type="line"/>
      <point x="161" y="467" type="line"/>
    </contour>
    <contour>
      <point x="183" y="424" type="line"/>
      <point x="296" y="216" type="line"/>
      <point x="205" y="42" type="line"/>
      <point x="92" y="250" type="line"/>
    </contour>
  </outline>
</glyph>
<glyph name="ethbar" format="1">
  <advance width="280"/>
  <outline>
    <contour>
      <point x="259" y="222" type="line"/>
      <point x="270" y="229"/>
      <point x="274" y="241"/>
      <point x="274" y="250" type="curve"/>
      <point x="21" y="250" type="line"/>
      <point x="10" y="244"/>
      <point x="7" y="232"/>
      <point x="7" y="222" type="curve"/>
    </contour>
  </outline>
</glyph>
<glyph name="two.numr" format="1">
  <advance width="261"/>
  <outline>
    <contour>
      <point x="22" y="371"/>
      <point x="53" y="352"/>
      <point x="108" y="351" type="curve"/>
      <point x="110" y="358" type="line"/>
      <point x="100" y="366"/>
      <point x="93" y="385"/>
      <point x="93" y="405" type="curve" smooth="yes"/>
      <point x="93" y="433"/>
      <point x="107" y="453"/>
      <point x="126" y="453" type="curve" smooth="yes"/>
      <point x="145" y="453"/>
      <point x="158" y="432"/>
      <point x="158" y="401" type="curve" smooth="yes"/>
      <point x="158" y="346"/>
      <point x="123" y="300"/>
      <point x="12" y="212" type="curve"/>
      <point x="24" y="190" type="line"/>
      <point x="226" y="190" type="line"/>
      <point x="238" y="199"/>
      <point x="244" y="215"/>
      <point x="244" y="237" type="curve"/>
      <point x="80" y="237" type="line"/>
      <point x="186" y="294"/>
      <point x="237" y="346"/>
      <point x="237" y="396" type="curve" smooth="yes"/>
      <point x="237" y="446"/>
      <point x="197" y="475"/>
      <point x="126" y="475" type="curve" smooth="yes"/>
      <point x="65" y="475"/>
      <point x="22" y="446"/>
      <point x="22" y="405" type="curve" smooth="yes"/>
    </contour>
  </outline>
</glyph>
